<?xml version="1.0" encoding="UTF-8"?>
<svg width="700pt" height="700pt" version="1.1" viewBox="0 0 700 700" xmlns="http://www.w3.org/2000/svg" xmlns:xlink="http://www.w3.org/1999/xlink">
 <defs>
  <symbol id="f" overflow="visible">
   <path d="m39.078-2.3281c-2.0117 1.043-4.1094 1.8281-6.2969 2.3594s-4.4648 0.79688-6.8281 0.79688c-7.0859 0-12.699-1.9766-16.844-5.9375-4.1367-3.957-6.2031-9.3281-6.2031-16.109 0-6.7891 2.0664-12.164 6.2031-16.125 4.1445-3.9688 9.7578-5.9531 16.844-5.9531 2.3633 0 4.6406 0.26562 6.8281 0.79688s4.2852 1.3242 6.2969 2.375v8.7969c-2.0312-1.3828-4.0391-2.3984-6.0156-3.0469-1.9688-0.64453-4.0469-0.96875-6.2344-0.96875-3.9062 0-6.9844 1.2578-9.2344 3.7656-2.2422 2.5-3.3594 5.9531-3.3594 10.359 0 4.3867 1.1172 7.8359 3.3594 10.344 2.25 2.5 5.3281 3.75 9.2344 3.75 2.1875 0 4.2656-0.32031 6.2344-0.96875 1.9766-0.64453 3.9844-1.6602 6.0156-3.0469z"/>
  </symbol>
  <symbol id="a" overflow="visible">
   <path d="m16.031-40.953v9.0625h10.516v7.2812h-10.516v13.531c0 1.4805 0.28906 2.4805 0.875 3 0.59375 0.52344 1.7656 0.78125 3.5156 0.78125h5.2344v7.2969h-8.7344c-4.0312 0-6.8867-0.83594-8.5625-2.5156-1.6797-1.6875-2.5156-4.5391-2.5156-8.5625v-13.531h-5.0781v-7.2812h5.0781v-9.0625z"/>
  </symbol>
  <symbol id="e" overflow="visible">
   <path d="m26.594-27.234v-17.078h10.266v44.312h-10.266v-4.6094c-1.3984 1.875-2.9453 3.25-4.6406 4.125-1.6875 0.875-3.6406 1.3125-5.8594 1.3125-3.9297 0-7.1562-1.5625-9.6875-4.6875-2.5234-3.125-3.7812-7.1445-3.7812-12.062 0-4.9141 1.2578-8.9375 3.7812-12.062 2.5312-3.125 5.7578-4.6875 9.6875-4.6875 2.1953 0 4.1445 0.44531 5.8438 1.3281 1.707 0.88672 3.2578 2.2578 4.6562 4.1094zm-6.7188 20.656c2.1875 0 3.8516-0.79688 5-2.3906 1.1445-1.5938 1.7188-3.9102 1.7188-6.9531 0-3.0391-0.57422-5.3594-1.7188-6.9531-1.1484-1.5938-2.8125-2.3906-5-2.3906-2.168 0-3.8242 0.79688-4.9688 2.3906-1.1484 1.5938-1.7188 3.9141-1.7188 6.9531 0 3.043 0.57031 5.3594 1.7188 6.9531 1.1445 1.5938 2.8008 2.3906 4.9688 2.3906z"/>
  </symbol>
  <symbol id="d" overflow="visible">
   <path d="m21.875-6.5781c2.1758 0 3.8359-0.79688 4.9844-2.3906 1.1562-1.5938 1.7344-3.9102 1.7344-6.9531 0-3.0391-0.57812-5.3594-1.7344-6.9531-1.1484-1.5938-2.8086-2.3906-4.9844-2.3906-2.1875 0-3.8672 0.80469-5.0312 2.4062-1.168 1.6055-1.75 3.918-1.75 6.9375 0 3.0234 0.58203 5.3359 1.75 6.9375 1.1641 1.6055 2.8438 2.4062 5.0312 2.4062zm-6.7812-20.656c1.4062-1.8516 2.9609-3.2227 4.6719-4.1094 1.707-0.88281 3.6719-1.3281 5.8906-1.3281 3.9375 0 7.1641 1.5625 9.6875 4.6875 2.5195 3.125 3.7812 7.1484 3.7812 12.062 0 4.918-1.2617 8.9375-3.7812 12.062-2.5234 3.125-5.75 4.6875-9.6875 4.6875-2.2188 0-4.1836-0.44531-5.8906-1.3281-1.7109-0.88281-3.2656-2.2539-4.6719-4.1094v4.6094h-10.188v-44.312h10.188z"/>
  </symbol>
  <symbol id="c" overflow="visible">
   <path d="m20.938-23.672c2.2891 0 3.9375-0.42578 4.9375-1.2812 1-0.85156 1.5-2.2578 1.5-4.2188 0-1.9258-0.5-3.3047-1.5-4.1406-1-0.84375-2.6484-1.2656-4.9375-1.2656h-4.625v10.906zm-4.625 7.5781v16.094h-10.953v-42.516h16.734c5.6016 0 9.707 0.94531 12.312 2.8281 2.6133 1.875 3.9219 4.8438 3.9219 8.9062 0 2.8047-0.67969 5.1094-2.0312 6.9219-1.3555 1.8047-3.4023 3.1328-6.1406 3.9844 1.5 0.34375 2.8438 1.1211 4.0312 2.3281 1.1875 1.1992 2.3906 3.0234 3.6094 5.4688l5.9531 12.078h-11.688l-5.1719-10.562c-1.0547-2.125-2.1172-3.5781-3.1875-4.3594-1.0742-0.78125-2.5-1.1719-4.2812-1.1719z"/>
  </symbol>
  <symbol id="b" overflow="visible">
   <path d="m36.969-19.422v19.422h-10.25v-14.812c0-2.7891-0.0625-4.707-0.1875-5.75-0.125-1.0391-0.33984-1.8125-0.64062-2.3125-0.39844-0.65625-0.9375-1.1719-1.625-1.5469s-1.4648-0.5625-2.3281-0.5625c-2.1367 0-3.8125 0.82422-5.0312 2.4688-1.2109 1.6484-1.8125 3.9219-1.8125 6.8281v15.688h-10.188v-44.312h10.188v17.078c1.5391-1.8516 3.1719-3.2227 4.8906-4.1094 1.7266-0.88281 3.6406-1.3281 5.7344-1.3281 3.6875 0 6.4844 1.1328 8.3906 3.3906 1.9062 2.2617 2.8594 5.5469 2.8594 9.8594z"/>
  </symbol>
 </defs>
 <g>
  <path d="m339.59 327.37h-23.52l9.9766-23.215c0.76953-1.7969 0.59375-3.875-0.47656-5.5195-1.0859-1.6328-2.918-2.625-4.875-2.625h-29.668c-2.4727 0-4.6797 1.5625-5.5078 3.8984l-16.184 45.852c-0.62891 1.7734-0.35156 3.7578 0.73438 5.3086 1.0977 1.5391 2.8711 2.4609 4.7617 2.4609h15.016l-11.828 38.301c-0.80469 2.6016 0.29297 5.4141 2.6602 6.7656 0.91016 0.53516 1.9141 0.78125 2.918 0.78125 1.5859 0 3.1367-0.64062 4.2695-1.8672l55.977-60.352c1.5859-1.7031 2.0078-4.1641 1.0742-6.3008-0.90625-2.1133-3.0078-3.4883-5.3281-3.4883zm-42.852 43.457 6.6016-21.41c0.54688-1.7617 0.23438-3.6875-0.875-5.1797s-2.8359-2.3672-4.6914-2.3672h-14.676l12.051-34.184h16.695l-9.9766 23.215c-0.76953 1.7969-0.59375 3.875 0.47656 5.5195 1.0859 1.6328 2.918 2.625 4.875 2.625h19.004z"/>
  <path d="m161.07 484.89h292.34c3.2188 0 5.832-2.6133 5.832-5.832v-29.773c0-18.621-14.898-33.75-33.391-34.289v-118.54h10.453c12.66 0 22.949-10.289 22.949-22.938v-5.9961c10.207 2.6133 17.793 11.816 17.793 22.82v104.6c0 17.418 14.176 31.594 31.605 31.594 17.418 0 31.594-14.176 31.594-31.594v-223.1c13.301-2.707 23.332-14.488 23.332-28.57v-23.332c0-3.2188-2.6133-5.832-5.832-5.832h-9.2383l-0.003907-12.77c0-3.2188-2.6133-5.832-5.832-5.832s-5.832 2.6133-5.832 5.832v12.762h-4.8516l-0.003907-12.762c0-3.2188-2.6133-5.832-5.832-5.832s-5.832 2.6133-5.832 5.832v12.762h-9.2383c-3.2188 0-5.832 2.6133-5.832 5.832v23.332c0 14.082 10.035 25.863 23.332 28.57v223.11c0 10.977-8.9492 19.926-19.926 19.926-10.988 0-19.938-8.9492-19.938-19.926v-104.6c0-17.477-12.785-31.922-29.457-34.719v-7.3984c0-12.66-10.289-22.949-22.949-22.949h-10.453v-116.67c0-17.699-14.387-32.082-32.082-32.082l-173.06 0.007813c-17.699 0-32.082 14.387-32.082 32.082v306.36c-18.492 0.54688-33.391 15.668-33.391 34.289v29.773c-0.011719 3.2305 2.6016 5.8438 5.8203 5.8438zm355.83-341.61v-17.5h35v17.5c0 9.6484-7.8516 17.5-17.5 17.5-9.6484 0-17.5-7.8516-17.5-17.5zm-80.605 93.695c6.2188 0 11.281 5.0625 11.281 11.281v25.281c0 6.2188-5.0625 11.281-11.281 11.281h-10.453v-47.832h10.453zm-235.99-128.33c0-11.258 9.1602-20.418 20.418-20.418h173.05c11.258 0 20.418 9.1602 20.418 20.418v306.25h-213.89zm-33.402 340.64c0-12.531 10.195-22.727 22.727-22.727h235.21c12.531 0 22.727 10.195 22.727 22.727v23.941l-280.66-0.003906z"/>
  <path d="m363.39 123.22h-112.35c-9.7773 0-17.723 7.957-17.723 17.734v124.25c0 3.2188 2.6133 5.832 5.832 5.832h136.15c3.2188 0 5.832-2.6133 5.832-5.832v-124.25c0-9.7891-7.9531-17.734-17.742-17.734zm-95.109 136.15c2.8242-18.98 19.238-33.602 39-33.602 19.691 0 36.074 14.605 38.887 33.602zm101.19 0h-11.785c-2.707-23.461-21.152-41.953-44.566-44.672v-32.164c0-3.2188-2.6133-5.832-5.832-5.832s-5.832 2.6133-5.832 5.832v32.164c-23.461 2.7188-41.965 21.211-44.672 44.672h-11.785v-118.42c0-3.2891 2.7773-6.0664 6.0547-6.0664h112.35c3.2891 0 6.0781 2.7773 6.0781 6.0664v118.42z"/>
  <use x="70" y="735" xlink:href="#f"/>
  <use x="220.503906" y="735" xlink:href="#a"/>
  <use x="287.953125" y="735" xlink:href="#e"/>
  <use x="350.015625" y="735" xlink:href="#d"/>
  <use x="450.105469" y="735" xlink:href="#c"/>
  <use x="534.386719" y="735" xlink:href="#b"/>
  <use x="676.0625" y="735" xlink:href="#a"/>
 </g>
</svg>
